<svg width="20" height="20" viewBox="0 0 20 20" fill="none" xmlns="http://www.w3.org/2000/svg">
<path d="M19.7826 8.6505H3.88373L13.3997 0.38084C13.5519 0.247546 13.4595 0 13.2584 0H10.8536C10.7476 0 10.6471 0.0380838 10.5683 0.106091L0.299618 9.0259C0.205569 9.10751 0.130142 9.20841 0.0784477 9.32176C0.0267536 9.4351 0 9.55825 0 9.68285C0 9.80745 0.0267536 9.9306 0.0784477 10.0439C0.130142 10.1573 0.205569 10.2582 0.299618 10.3398L10.6281 19.314C10.6688 19.3494 10.7177 19.3684 10.7694 19.3684H13.2557C13.4568 19.3684 13.5491 19.1182 13.397 18.9876L3.88373 10.7179H19.7826C19.9022 10.7179 20 10.62 20 10.5003V8.86813C20 8.74843 19.9022 8.6505 19.7826 8.6505Z" fill="black"/>
</svg>
