<svg width="759" height="1115" viewBox="0 0 759 1115" fill="none" xmlns="http://www.w3.org/2000/svg">
<path d="M192.404 28.7306H380.909C391.199 28.7306 401.068 32.8254 408.344 40.1141C415.62 47.4029 419.708 57.2885 419.708 67.5964V433.623C419.708 441.781 416.473 449.605 410.715 455.373C404.956 461.141 397.146 464.382 389.002 464.382H184.305C176.162 464.382 168.352 461.141 162.593 455.373C156.835 449.605 153.6 441.781 153.6 433.623V67.5964C153.6 62.492 154.604 57.4376 156.554 52.7219C158.504 48.0061 161.362 43.7214 164.966 40.1123C168.569 36.5032 172.847 33.6405 177.554 31.6876C182.262 29.7347 187.308 28.7299 192.404 28.7306Z" fill="#CEE4ED"/>
<path d="M693.701 28.7306H505.969C484.326 28.7306 466.781 46.306 466.781 67.9864V425.126C466.781 446.807 484.326 464.382 505.969 464.382H693.701C715.344 464.382 732.889 446.807 732.889 425.126V67.9864C732.889 46.306 715.344 28.7306 693.701 28.7306Z" fill="#CEE4ED"/>
<path d="M285.029 164.62L342.469 87.1592" stroke="white" stroke-width="7" stroke-linecap="round" stroke-linejoin="round"/>
<path d="M152.006 344.004L248.473 213.917" stroke="white" stroke-width="7" stroke-linecap="round" stroke-linejoin="round"/>
<path d="M130.521 1096.05V67.0556C130.527 49.963 137.309 33.5725 149.374 21.4862C161.439 9.39992 177.802 2.60687 194.865 2.59998H691.63C708.702 2.59998 725.075 9.39355 737.146 21.4862C749.218 33.5789 756 49.98 756 67.0816V1096.05" stroke="#592D29" stroke-width="5" stroke-linecap="round" stroke-linejoin="round"/>
<path d="M443.245 2.59998V1094.92" stroke="#592D29" stroke-width="5" stroke-linecap="round" stroke-linejoin="round"/>
<path d="M642.475 156.919L700.268 78.9899" stroke="white" stroke-width="7" stroke-linecap="round" stroke-linejoin="round"/>
<path d="M588.648 276.501L677.323 156.919" stroke="white" stroke-width="7" stroke-linecap="round" stroke-linejoin="round"/>
<path d="M617.542 190.543L629.165 174.875" stroke="white" stroke-width="7" stroke-linecap="round" stroke-linejoin="round"/>
<path d="M500.389 348.533L594.229 221.988" stroke="white" stroke-width="7" stroke-linecap="round" stroke-linejoin="round"/>
<path d="M311.145 1033.52C311.145 1033.52 251.915 1093.41 184.435 1091.88L3.29572 539.102L177.5 532.233L311.145 1033.52Z" fill="#59221D"/>
<path d="M281.416 832.275L81.2458 1029.98C75.084 1022.43 30.3727 965.497 30.8088 890.454L166.915 749.422L94.4158 672.668C43.9839 618.737 20.5563 591.306 3.29576 539.102L189.87 486.503L301.911 683.266C315.371 706.892 320.659 734.312 316.952 761.261C313.246 788.209 300.753 813.175 281.416 832.275Z" fill="#A74602"/>
<path d="M127.281 510.138C126.367 516.976 114.303 597.755 52.4195 625.919C46.5588 618.852 41.2742 612.055 36.4568 605.285C100.204 571.271 123.408 506.212 123.408 506.212C124.665 507.564 125.955 508.872 127.281 510.138Z" fill="#59221D"/>
<path d="M164.662 749.422L187.057 727.503" stroke="#59221D" stroke-width="5" stroke-linecap="round" stroke-linejoin="round"/>
<path d="M371.84 1110.47V1111.81H192.533L183.35 1084.03C264.752 1084.5 309.495 1032.63 309.495 1032.63L358.037 1078.61C366.673 1086.98 371.638 1098.44 371.84 1110.47Z" fill="white" stroke="#592D29" stroke-width="5" stroke-linecap="round" stroke-linejoin="round"/>
<path d="M189.304 1102.05H370.74" stroke="#592D29" stroke-width="5" stroke-linecap="round" stroke-linejoin="round"/>
<path d="M332.927 1100.79C332.888 1094.71 334.232 1088.71 336.858 1083.23C339.484 1077.76 343.322 1072.95 348.081 1069.18" stroke="#592D29" stroke-width="5" stroke-linecap="round" stroke-linejoin="round"/>
<path d="M298.972 1058.94L319.155 1039.7C320.043 1038.86 321.226 1038.39 322.452 1038.4C323.678 1038.42 324.85 1038.91 325.717 1039.78V1039.78C326.558 1040.62 327.048 1041.76 327.088 1042.95C327.129 1044.14 326.717 1045.3 325.935 1046.2" stroke="#592D29" stroke-width="5" stroke-linecap="round" stroke-linejoin="round"/>
<path d="M307.408 1066.27L327.585 1047.03C328.473 1046.18 329.656 1045.71 330.882 1045.73C332.108 1045.74 333.28 1046.24 334.147 1047.1V1047.1C334.993 1047.94 335.487 1049.08 335.528 1050.27C335.568 1051.46 335.152 1052.62 334.365 1053.52" stroke="#592D29" stroke-width="5" stroke-linecap="round" stroke-linejoin="round"/>
<path d="M13.351 1111.75L3.24895 1111.81L2.99979 917.214L30.8243 891.734C29.5733 973.272 80.9084 1029.77 80.9084 1029.77L27.0088 1105.94C25.2247 1107.76 23.1002 1109.21 20.7566 1110.21C18.4131 1111.2 15.8966 1111.73 13.351 1111.75Z" fill="white" stroke="#592D29" stroke-width="5" stroke-linecap="round" stroke-linejoin="round"/>
<path d="M13.8027 1064.28C19.6824 1065.78 25.1451 1068.59 29.7752 1072.51C34.4052 1076.44 38.0805 1081.37 40.5214 1086.93" stroke="#592D29" stroke-width="5" stroke-linecap="round" stroke-linejoin="round"/>
<path d="M13.569 907.542V1111.75" stroke="#592D29" stroke-width="5" stroke-linecap="round" stroke-linejoin="round"/>
<path d="M53.3331 1028.79L71.5387 1049.94C72.3445 1050.86 72.7537 1052.07 72.6779 1053.3C72.6022 1054.53 72.0475 1055.67 71.1338 1056.49C70.2514 1057.29 69.0988 1057.73 67.9088 1057.71C66.7188 1057.69 65.5801 1057.22 64.7227 1056.4" stroke="#592D29" stroke-width="5" stroke-linecap="round" stroke-linejoin="round"/>
<path d="M45.619 1036.87L63.8239 1058.01C64.6297 1058.94 65.0388 1060.15 64.963 1061.38C64.8872 1062.6 64.3327 1063.75 63.419 1064.57V1064.57C62.5367 1065.37 61.3841 1065.81 60.1941 1065.79C59.0042 1065.77 57.8654 1065.3 57.0081 1064.47" stroke="#592D29" stroke-width="5" stroke-linecap="round" stroke-linejoin="round"/>
<path d="M216.527 329.017V485.063C216.528 490.322 218.614 495.366 222.327 499.085C226.04 502.805 231.075 504.895 236.326 504.896C241.577 504.896 246.613 502.806 250.326 499.087C254.039 495.367 256.125 490.323 256.125 485.063V396.889" stroke="#59221D" stroke-width="5" stroke-linecap="round" stroke-linejoin="round"/>
<path d="M290.568 364.258L275.114 404.783C259.8 444.065 223.13 469.92 181.035 469.92L224.838 547.922C224.838 547.922 159.326 544.937 123.408 506.196C123.408 506.196 92.2613 593.506 3.04135 618.722L3.29571 539.082V307.561C3.29571 241.327 56.9148 187.646 123.034 187.678H123.299C144.285 187.677 164.477 195.717 179.737 210.149C194.997 224.581 204.17 244.312 205.376 265.3L207.515 302.507L208.278 315.887C208.278 315.887 209.866 368.554 290.568 364.258Z" fill="#98C8DB"/>
<path d="M16.1751 253.418V614.426C15.4328 614.707 14.6852 614.983 13.9221 615.248V258.093C14.0675 257.786 14.2077 257.479 14.3478 257.172C14.7008 256.418 15.0539 255.664 15.4276 254.92C15.6664 254.411 15.9156 253.917 16.1751 253.418Z" fill="#CEE4ED"/>
<path d="M29.8639 232.217V608.608C29.1216 608.961 28.3741 609.315 27.6163 609.648V235.108C28.3534 234.141 29.1268 233.179 29.8639 232.217Z" fill="#CEE4ED"/>
<path d="M43.5528 217.88V601.275C42.8123 601.723 42.063 602.163 41.3052 602.596V219.929C42.0475 219.217 42.795 218.551 43.5528 217.88Z" fill="#CEE4ED"/>
<path d="M57.2472 207.365V592.175C56.5048 592.695 55.7522 593.262 54.9995 593.803V208.884C55.747 208.371 56.4962 207.865 57.2472 207.365Z" fill="#CEE4ED"/>
<path d="M70.9418 199.575V581.062C70.1994 581.728 69.4517 582.393 68.6885 583.049V200.693C69.3479 200.355 70.0125 200.023 70.677 199.705C70.7627 199.657 70.8511 199.613 70.9418 199.575Z" fill="#CEE4ED"/>
<path d="M84.6303 193.965V567.495C83.9001 568.306 83.1509 569.112 82.3826 569.913V194.776C83.1145 194.48 83.8776 194.22 84.6303 193.965Z" fill="#CEE4ED"/>
<path d="M98.3193 190.226V550.829C97.5874 551.822 96.8347 552.82 96.0717 553.824V190.72C96.8192 190.548 97.5667 190.382 98.3193 190.226Z" fill="#CEE4ED"/>
<path d="M112.014 188.172V529.82C111.723 530.34 111.417 530.86 111.11 531.38C110.674 532.114 110.233 532.868 109.776 533.632V188.401C110.513 188.317 111.261 188.239 112.014 188.172Z" fill="#CEE4ED"/>
<path d="M125.708 187.709V508.599C124.945 507.839 124.192 507.038 123.46 506.269V187.678C124.213 187.678 124.96 187.688 125.708 187.709Z" fill="#CEE4ED"/>
<path d="M139.397 189.258V520.07L139.054 519.831C138.416 519.378 137.782 518.915 137.149 518.453V188.842C137.902 188.972 138.66 189.113 139.397 189.258Z" fill="#CEE4ED"/>
<path d="M153.086 193.257V528.39C152.333 528 151.586 527.595 150.838 527.184V192.42C151.596 192.696 152.344 192.966 153.086 193.257Z" fill="#CEE4ED"/>
<path d="M166.78 200.132V534.703C166.033 534.402 165.28 534.09 164.532 533.778V198.775C165.051 199.076 165.571 199.388 166.09 199.706C166.323 199.846 166.557 199.976 166.78 200.132Z" fill="#CEE4ED"/>
<path d="M180.474 210.865V539.544C179.727 539.31 178.979 539.076 178.227 538.827V208.754C178.746 209.211 179.234 209.674 179.737 210.147C179.981 210.376 180.23 210.615 180.474 210.865Z" fill="#CEE4ED"/>
<path d="M194.163 493.305V543.226C193.421 543.055 192.674 542.872 191.916 542.706V489.306L192.071 489.576L193.333 491.828L194.163 493.305Z" fill="#CEE4ED"/>
<path d="M194.163 228.265V469.067C193.416 469.166 192.668 469.259 191.916 469.337V224.661C192.49 225.528 193.049 226.412 193.592 227.313C193.79 227.625 193.982 227.942 194.163 228.265Z" fill="#CEE4ED"/>
<path d="M207.852 310.13V466.301C207.11 466.509 206.357 466.706 205.605 466.894V310.13H207.852Z" fill="#CEE4ED"/>
<path d="M207.852 517.704V545.967C207.121 545.852 206.368 545.722 205.605 545.587V513.7L207.79 517.595L207.852 517.704Z" fill="#CEE4ED"/>
<path d="M221.547 344.352V461.408C221.121 461.6 220.69 461.787 220.259 461.964L219.299 462.364V341.851C220 342.688 220.747 343.526 221.547 344.352Z" fill="#CEE4ED"/>
<path d="M221.547 542.072V547.698C220.887 547.641 220.135 547.573 219.299 547.48V538.068L221.547 542.072Z" fill="#CEE4ED"/>
<path d="M235.241 354.685V454.008C234.498 454.496 233.751 454.959 232.988 455.422V353.38L233.647 353.77C234.177 354.092 234.696 354.389 235.241 354.685Z" fill="#CEE4ED"/>
<path d="M248.929 360.286V443.384C248.198 444.07 247.44 444.741 246.682 445.401V359.573C247.419 359.823 248.192 360.057 248.929 360.286Z" fill="#CEE4ED"/>
<path d="M262.624 363.26V427.882C261.897 428.922 261.144 429.91 260.376 430.898V362.896C261.113 363.016 261.861 363.135 262.624 363.26Z" fill="#CEE4ED"/>
<path d="M276.313 364.425V401.642L275.114 404.762C274.854 405.423 274.595 406.083 274.32 406.733C274.237 406.936 274.154 407.139 274.065 407.342V364.3C274.808 364.368 275.555 364.394 276.313 364.425Z" fill="#CEE4ED"/>
<path d="M290.007 364.3V365.746L289.291 367.608L287.733 371.643V364.389C288.497 364.363 289.244 364.326 290.007 364.3Z" fill="#CEE4ED"/>
<path d="M193.333 491.828H3.29572V489.577H192.071L193.333 491.828Z" fill="#CEE4ED"/>
<path d="M185.582 478.027H3.29572V475.775H184.316L185.582 478.027Z" fill="#CEE4ED"/>
<path d="M220.259 461.964L219.299 462.364C217.705 463.03 216.085 463.649 214.455 464.221H3.29572V461.964H220.259Z" fill="#CEE4ED"/>
<path d="M243.365 448.162C242.406 448.939 241.429 449.691 240.432 450.419H3.29572V448.162H243.365Z" fill="#CEE4ED"/>
<path d="M257.568 434.356C256.924 435.121 256.27 435.875 255.606 436.608H3.31668V434.356H257.568Z" fill="#CEE4ED"/>
<path d="M267.399 420.555C266.948 421.314 266.486 422.068 266.013 422.807H3.29572V420.555H267.399Z" fill="#CEE4ED"/>
<path d="M274.32 406.754C274.237 406.957 274.154 407.16 274.065 407.362C273.842 407.914 273.603 408.46 273.354 409.005H3.29572V406.754H274.32Z" fill="#CEE4ED"/>
<path d="M279.63 392.948L278.768 395.199H3.29572V392.948H279.63Z" fill="#CEE4ED"/>
<path d="M284.889 379.146L284.032 381.398H3.29572V379.146H284.889Z" fill="#CEE4ED"/>
<path d="M290.153 365.345L290.007 365.735L289.291 367.597H3.29572V365.345H290.153Z" fill="#CEE4ED"/>
<path d="M233.657 353.791H3.29572V351.539H230.076C231.005 352.173 231.981 352.803 232.988 353.401L233.657 353.791Z" fill="#CEE4ED"/>
<path d="M217.814 339.989H3.29572V337.738H216.2C216.708 338.487 217.238 339.235 217.814 339.989Z" fill="#CEE4ED"/>
<path d="M210.469 326.188H3.29572V323.936H209.778C209.96 324.659 210.199 325.408 210.469 326.188Z" fill="#CEE4ED"/>
<path d="M208.076 312.382H3.29572V310.13H207.956L208.076 312.382Z" fill="#CEE4ED"/>
<path d="M207.292 298.581H3.62782C3.68493 297.827 3.74208 297.078 3.80956 296.329H207.183L207.292 298.581Z" fill="#CEE4ED"/>
<path d="M206.492 284.78H5.45543C5.60078 284.026 5.75138 283.277 5.90712 282.528H206.363L206.492 284.78Z" fill="#CEE4ED"/>
<path d="M205.698 270.973H8.95424C9.19303 270.219 9.4423 269.465 9.70186 268.722H205.625V269.304L205.698 270.973Z" fill="#CEE4ED"/>
<path d="M204.509 257.177H14.3477C14.7007 256.423 15.0537 255.669 15.4275 254.926H204.12C204.26 255.669 204.39 256.418 204.509 257.177Z" fill="#CEE4ED"/>
<path d="M201.104 243.371H21.8593C22.3369 242.617 22.8249 241.863 23.3232 241.12H200.278C200.574 241.868 200.844 242.617 201.104 243.371Z" fill="#CEE4ED"/>
<path d="M194.911 229.565H32.0909C32.7346 228.806 33.3922 228.055 34.0635 227.313H193.592C193.79 227.625 193.982 227.942 194.163 228.265C194.418 228.691 194.667 229.123 194.911 229.565Z" fill="#CEE4ED"/>
<path d="M185.136 215.764H46.0136C46.9168 214.999 47.8409 214.245 48.7701 213.512H183.101C183.792 214.245 184.472 214.999 185.136 215.764Z" fill="#CEE4ED"/>
<path d="M169.568 201.957H66.2642C67.0584 201.526 67.863 201.104 68.6676 200.694C69.3269 200.356 69.9914 200.023 70.6558 199.706H166.074C166.302 199.846 166.536 199.986 166.759 200.132C167.73 200.714 168.649 201.323 169.568 201.957Z" fill="#CEE4ED"/>
<path d="M45.0169 600.386L43.553 601.265C42.8123 601.712 42.0631 602.152 41.3051 602.586V602.638H3.09326V600.386H45.0169Z" fill="#CEE4ED"/>
<path d="M64.4733 586.595C63.5493 587.349 62.6096 588.103 61.6544 588.847H3.13989V586.595H64.4733Z" fill="#CEE4ED"/>
<path d="M79.6108 572.789C78.8685 573.543 78.1209 574.297 77.3578 575.041H3.17133V572.789H79.6108Z" fill="#CEE4ED"/>
<path d="M91.9865 558.988C91.374 559.736 90.7458 560.49 90.1177 561.239H3.22333V558.988H91.9865Z" fill="#CEE4ED"/>
<path d="M102.322 545.186C101.803 545.93 101.284 546.684 100.765 547.438H3.26469V545.186H102.322Z" fill="#CEE4ED"/>
<path d="M224.557 547.438H218.847C216.002 547.131 212.265 546.663 207.873 545.946C207.141 545.831 206.388 545.701 205.625 545.566C204.862 545.431 204.218 545.322 203.497 545.186H223.275L224.557 547.438Z" fill="#CEE4ED"/>
<path d="M111.111 531.38C110.674 532.113 110.233 532.867 109.776 533.632H3.29572V531.38H111.111Z" fill="#CEE4ED"/>
<path d="M216.807 533.632H164.19C162.497 532.914 160.807 532.164 159.118 531.38H215.541L216.807 533.632Z" fill="#CEE4ED"/>
<path d="M118.466 517.574C118.118 518.297 117.744 519.046 117.36 519.831H3.29572V517.574H118.466Z" fill="#CEE4ED"/>
<path d="M209.057 519.831H139.054C138.416 519.378 137.783 518.916 137.149 518.453L135.992 517.574H207.79L207.853 517.683L209.057 519.831Z" fill="#CEE4ED"/>
<path d="M201.306 506.025H3.29572V503.768H200.04L201.306 506.025Z" fill="#CEE4ED"/>
<path d="M80.8151 195.332L98.932 173.741C99.7836 172.725 100.863 171.926 102.082 171.407C103.3 170.888 104.624 170.665 105.945 170.756L154.7 174.1C156.114 174.198 157.48 174.651 158.672 175.419C159.865 176.186 160.845 177.242 161.521 178.489L177.095 207.246C177.095 207.246 155.5 187.771 119.587 188.478C96.4143 188.931 80.8151 195.332 80.8151 195.332Z" fill="#7EBAD2"/>
<path d="M177.676 206.684C177.676 206.684 154.778 187.771 117.63 188.484C93.6423 188.936 77.503 195.338 77.503 195.338" stroke="white" stroke-width="5" stroke-linecap="round" stroke-linejoin="round"/>
<path d="M289.26 365.584C198.415 366.473 207.676 311.352 207.676 311.352L160.727 359.573" stroke="white" stroke-width="5" stroke-linecap="round" stroke-linejoin="round"/>
<path d="M71.8033 341.149C71.8033 341.149 98.4026 470.57 185.707 471.49" stroke="white" stroke-width="5" stroke-linecap="round" stroke-linejoin="round"/>
<path d="M160.462 163.876L157.254 174.677C156.446 174.356 155.593 174.161 154.726 174.1L105.955 170.751C105.717 170.751 105.483 170.751 105.249 170.751L127.312 129.514L160.462 163.876Z" fill="#FFC200"/>
<path d="M160.463 163.876L157.255 174.677C156.447 174.356 155.594 174.161 154.726 174.1L145.18 173.455C141.8 170.143 140.082 165.624 140.155 160.455L140.243 153.731L141.681 144.423L160.463 163.876Z" fill="#A74602"/>
<path d="M145.154 126.347C145.154 126.347 164.745 129.675 176.498 120.107C190.021 109.124 185.759 91.2309 173.939 90.0349C160.831 88.7088 158.614 101.278 159.59 102.562C159.59 102.562 155.562 105.027 145.382 103.082C137.647 101.61 131.506 100.102 123.714 106.498C115.58 113.175 117.065 131.225 130.188 135.993C138.177 138.926 145.154 126.347 145.154 126.347Z" fill="#A74602"/>
<path d="M145.985 126.451C168.826 128.864 177.536 119.099 177.536 119.099C183.568 125.859 182.728 146.976 182.728 146.976C171.712 152.031 171.125 166.648 171.125 166.648C166.867 166.953 162.591 166.937 158.334 166.602C154.169 166.277 150.284 164.376 147.467 161.285C144.651 158.195 143.115 154.146 143.171 149.961L143.223 146.196H142.159C140.833 146.227 139.515 145.991 138.281 145.504C137.048 145.017 135.924 144.288 134.975 143.359C134.027 142.431 133.274 141.322 132.759 140.098C132.245 138.873 131.98 137.559 131.98 136.23C131.98 134.902 132.245 133.587 132.759 132.363C133.274 131.139 134.027 130.03 134.975 129.101C135.924 128.173 137.048 127.444 138.281 126.957C139.515 126.469 140.833 126.234 142.159 126.264L145.985 126.451Z" fill="#FFC200"/>
<path d="M164.615 130.097C164.615 130.097 170.009 126.576 175.055 127.034" stroke="#59221D" stroke-width="5" stroke-linecap="round" stroke-linejoin="round"/>
<path d="M170.627 138.178C171.607 138.178 172.402 136.9 172.402 135.323C172.402 133.746 171.607 132.468 170.627 132.468C169.646 132.468 168.851 133.746 168.851 135.323C168.851 136.9 169.646 138.178 170.627 138.178Z" fill="#59221D"/>
<path d="M167.253 151.537C167.253 151.537 167.356 154.943 173.061 155.213" stroke="#59221D" stroke-width="5" stroke-linecap="round" stroke-linejoin="round"/>
<path d="M138.945 135.869C138.945 135.29 139.058 134.716 139.279 134.181C139.5 133.645 139.824 133.159 140.233 132.749C140.642 132.34 141.127 132.015 141.661 131.794C142.196 131.572 142.768 131.459 143.347 131.459" stroke="#59221D" stroke-width="5" stroke-linecap="round" stroke-linejoin="round"/>
<path d="M143.799 123.737H139.848C133.968 123.737 129.201 128.512 129.201 134.402V138.36C129.201 144.25 133.968 149.025 139.848 149.025H143.799C149.679 149.025 154.446 144.25 154.446 138.36V134.402C154.446 128.512 149.679 123.737 143.799 123.737Z" fill="white" stroke="#59221D" stroke-width="5" stroke-linecap="round" stroke-linejoin="round"/>
<path d="M142.579 123.243V101.694C142.579 100.829 142.922 99.9998 143.532 99.3883C144.143 98.7769 144.971 98.4333 145.834 98.4333V98.4333C146.697 98.4333 147.525 98.7769 148.135 99.3883C148.746 99.9998 149.089 100.829 149.089 101.694" stroke="#59221D" stroke-width="5" stroke-linecap="round" stroke-linejoin="round"/>
<path d="M141.255 149.312V165.619C141.255 172.427 143.239 179.086 146.962 184.781C150.686 190.476 155.987 194.958 162.217 197.678V197.678C195.191 212.082 216.506 245.816 216.506 281.852V312.013" stroke="#59221D" stroke-width="5" stroke-linecap="round" stroke-linejoin="round"/>
<path d="M292.125 362.179C211.424 366.474 209.322 313.297 209.322 313.297L279.511 202.124C282.278 197.706 286.12 194.064 290.676 191.539C295.232 189.015 300.353 187.689 305.56 187.688H314.681L313.16 190.507C312.598 191.549 312.316 192.72 312.342 193.904C312.367 195.088 312.699 196.246 313.305 197.263C313.911 198.28 314.77 199.122 315.798 199.707C316.826 200.292 317.988 200.6 319.171 200.6H325.701C326.944 200.601 328.163 200.263 329.228 199.621C330.292 198.98 331.162 198.06 331.744 196.96L348.241 165.567L353.77 182.696C355.554 188.218 355.401 194.185 353.334 199.607L292.125 362.179Z" fill="#FFC200"/>
<path d="M347.727 166.524L331.77 196.934C331.189 198.035 330.32 198.956 329.255 199.598C328.19 200.239 326.97 200.577 325.727 200.574H318.979C317.81 200.573 316.661 200.271 315.642 199.697C314.623 199.124 313.768 198.298 313.158 197.299C312.549 196.299 312.206 195.16 312.161 193.99C312.117 192.82 312.373 191.658 312.905 190.616L325.364 166.576C326.088 165.169 327.184 163.988 328.532 163.162C329.881 162.337 331.43 161.899 333.01 161.896H344.95C345.492 161.897 346.024 162.039 346.495 162.307C346.966 162.575 347.361 162.96 347.64 163.426C347.919 163.891 348.074 164.421 348.089 164.963C348.104 165.506 347.98 166.043 347.727 166.524Z" fill="#59221D"/>
<path d="M312.329 309.09C312.329 309.09 319.628 364.212 288.134 364.461C205.76 365.039 208.283 316.423 208.283 316.423C208.283 294.249 227.87 283.438 227.87 283.438C227.87 283.438 229.038 304.181 260.839 313.38C292.64 322.579 312.329 309.09 312.329 309.09Z" fill="#7EBAD2"/>
</svg>
