<svg width="120" height="120" viewBox="0 0 120 120" fill="none" xmlns="http://www.w3.org/2000/svg">
<circle cx="60" cy="60" r="60" transform="rotate(180 60 60)" fill="#FFBD12"/>
<path fill-rule="evenodd" clip-rule="evenodd" d="M91.0659 26.8237C82.9612 18.719 72.7524 14.6667 60.4395 14.6667C52.9582 14.6667 46.1003 16.3811 39.8659 19.81C33.5536 23.3169 28.6051 28.0706 25.0203 34.0712L43.139 44.5918C44.6976 41.6304 47.0355 39.2926 50.1527 37.5781C53.192 35.9416 56.6209 35.1233 60.4395 35.1233C66.9856 35.1233 72.2848 37.1495 76.3372 41.2018C80.3116 45.3321 82.2988 50.7093 82.2988 57.3333C82.2988 63.9574 80.3116 69.2956 76.3372 73.3479C72.2848 77.4782 66.9856 79.5434 60.4395 79.5434C56.6209 79.5434 53.192 78.6862 50.1527 76.9717C47.0355 75.3352 44.6976 73.0752 43.139 70.1918L25.0203 80.5954C28.6051 86.5181 33.5536 91.2329 39.866 94.7397C46.1783 98.2466 53.0361 100 60.4395 100C72.7524 100 82.9612 95.9087 91.066 87.726C99.0927 79.6213 103.106 69.4904 103.106 57.3333C103.106 45.1763 99.0927 35.0064 91.0659 26.8237ZM26.6667 48C21.512 48 17.3334 52.1787 17.3334 57.3333C17.3334 62.488 21.512 66.6667 26.6667 66.6667C31.8213 66.6667 36 62.488 36 57.3333C36 52.1787 31.8213 48 26.6667 48Z" fill="#18191F"/>
<path fill-rule="evenodd" clip-rule="evenodd" d="M48.878 35.2358L48.8884 35.2302C52.3563 33.3629 56.2274 32.4566 60.4395 32.4566C67.5835 32.4566 73.598 34.6914 78.2228 39.3162L78.2409 39.3343L78.2587 39.3528C82.7857 44.0574 84.9655 50.1353 84.9655 57.3333C84.9655 64.5301 82.7858 70.5813 78.241 75.2152C73.6195 79.9256 67.5989 82.21 60.4395 82.21C56.2205 82.21 52.3448 81.2616 48.8776 79.3141C46.1963 77.9004 43.9783 76.0512 42.2677 73.7671L28.8023 81.4988C31.9719 85.9512 36.0796 89.5857 41.161 92.4086C47.0669 95.6897 53.4774 97.3333 60.4395 97.3333C72.0953 97.3333 81.6046 93.489 89.1713 85.8495C96.6687 78.2793 100.439 68.8388 100.439 57.3333C100.439 45.8324 96.6712 36.3504 89.1714 28.7004C81.6078 21.1414 72.0986 17.3333 60.4395 17.3333C53.3858 17.3333 46.9753 18.9445 41.1565 22.1436C36.0676 24.9716 31.9529 28.6437 28.7791 33.1701L42.2459 40.9896C43.9545 38.6397 46.1749 36.7225 48.8676 35.2415L48.878 35.2358ZM43.8446 43.3766C45.3723 40.9837 47.4749 39.0509 50.1527 37.5781C53.192 35.9416 56.6209 35.1233 60.4395 35.1233C66.9856 35.1233 72.2848 37.1495 76.3372 41.2018C80.3116 45.3321 82.2988 50.7093 82.2988 57.3333C82.2988 63.9574 80.3116 69.2956 76.3372 73.3479C72.2848 77.4782 66.9856 79.5434 60.4395 79.5434C56.6209 79.5434 53.192 78.6862 50.1527 76.9717C47.3015 75.4748 45.1022 73.4563 43.555 70.9162C43.4107 70.6793 43.272 70.4378 43.139 70.1918L25.0203 80.5954C25.4839 81.3614 25.9703 82.1071 26.4795 82.8326C29.9078 87.7173 34.3699 91.6864 39.866 94.7397C46.1783 98.2466 53.0361 100 60.4395 100C72.7524 100 82.9612 95.9087 91.066 87.726C99.0927 79.6213 103.106 69.4904 103.106 57.3333C103.106 45.1763 99.0927 35.0064 91.0659 26.8237C82.9612 18.719 72.7524 14.6667 60.4395 14.6667C52.9582 14.6667 46.1003 16.3811 39.8659 19.81C34.3622 22.8677 29.8953 26.8732 26.4651 31.8266C25.9611 32.5543 25.4795 33.3025 25.0203 34.0712L43.139 44.5918C43.3587 44.1743 43.5939 43.7692 43.8446 43.3766ZM26.6667 50.6667C22.9848 50.6667 20 53.6514 20 57.3333C20 61.0152 22.9848 64 26.6667 64C30.3486 64 33.3334 61.0152 33.3334 57.3333C33.3333 53.6514 30.3486 50.6667 26.6667 50.6667ZM17.3334 57.3333C17.3334 52.1787 21.512 48 26.6667 48C31.8213 48 36 52.1787 36 57.3333C36 62.488 31.8213 66.6667 26.6667 66.6667C21.512 66.6667 17.3334 62.488 17.3334 57.3333Z" fill="#18191F"/>
<path fill-rule="evenodd" clip-rule="evenodd" d="M91.0659 29.4904C82.9612 21.3857 72.7524 17.3333 60.4395 17.3333C52.9582 17.3333 46.1003 19.0478 39.8659 22.4767C33.5536 25.9836 28.6051 30.7373 25.0203 36.7379L43.139 47.2585C44.6976 44.2971 47.0355 41.9592 50.1527 40.2448C53.192 38.6082 56.6209 37.79 60.4395 37.79C66.9856 37.79 72.2848 39.8161 76.3372 43.8685C80.3116 47.9988 82.2988 53.376 82.2988 60C82.2988 66.6241 80.3116 71.9623 76.3372 76.0146C72.2848 80.1449 66.9856 82.21 60.4395 82.2101C56.6209 82.2101 53.192 81.3528 50.1527 79.6384C47.0355 78.0018 44.6976 75.7419 43.139 72.8585L25.0203 83.2621C28.6051 89.1848 33.5536 93.8995 39.866 97.4064C46.1783 100.913 53.0361 102.667 60.4395 102.667C72.7524 102.667 82.9612 98.5753 91.066 90.3927C99.0927 82.288 103.106 72.1571 103.106 60C103.106 47.8429 99.0927 37.6731 91.0659 29.4904ZM26.6667 50.6667C21.512 50.6667 17.3334 54.8454 17.3334 60C17.3334 65.1547 21.512 69.3333 26.6667 69.3333C31.8213 69.3333 36 65.1547 36 60C36 54.8454 31.8213 50.6667 26.6667 50.6667Z" fill="white"/>
<path fill-rule="evenodd" clip-rule="evenodd" d="M48.878 37.9025L48.8884 37.8968C52.3563 36.0295 56.2274 35.1233 60.4395 35.1233C67.5835 35.1233 73.598 37.3581 78.2228 41.9829L78.2409 42.001L78.2587 42.0195C82.7857 46.724 84.9655 52.802 84.9655 60C84.9655 67.1968 82.7858 73.248 78.241 77.8818C73.6195 82.5922 67.5989 84.8767 60.4395 84.8767C56.2205 84.8767 52.3448 83.9283 48.8776 81.9807C46.1963 80.567 43.9783 78.7179 42.2677 76.4338L28.8023 84.1655C31.9719 88.6179 36.0796 92.2523 41.161 95.0753C47.0669 98.3564 53.4774 100 60.4395 100C72.0953 100 81.6046 96.1557 89.1713 88.5161C96.6687 80.9459 100.439 71.5055 100.439 60C100.439 48.4991 96.6712 39.0171 89.1714 31.3671C81.6078 23.808 72.0986 20 60.4395 20C53.3858 20 46.9753 21.6112 41.1565 24.8103C36.0676 27.6383 31.9529 31.3104 28.7791 35.8368L42.2459 43.6563C43.9545 41.3064 46.1749 39.3892 48.8676 37.9082L48.878 37.9025ZM43.8446 46.0432C45.3723 43.6503 47.4749 41.7175 50.1527 40.2448C53.192 38.6082 56.6209 37.79 60.4395 37.79C66.9856 37.79 72.2848 39.8161 76.3372 43.8685C80.3116 47.9988 82.2988 53.376 82.2988 60C82.2988 66.6241 80.3116 71.9623 76.3372 76.0146C72.2848 80.1449 66.9856 82.21 60.4395 82.2101C56.6209 82.2101 53.192 81.3528 50.1527 79.6384C47.3015 78.1415 45.1022 76.123 43.555 73.5829C43.4107 73.346 43.272 73.1045 43.139 72.8585L25.0203 83.2621C25.4839 84.028 25.9703 84.7737 26.4795 85.4993C29.9078 90.384 34.3699 94.3531 39.866 97.4064C46.1783 100.913 53.0361 102.667 60.4395 102.667C72.7524 102.667 82.9612 98.5753 91.066 90.3927C99.0927 82.288 103.106 72.1571 103.106 60C103.106 47.8429 99.0927 37.6731 91.0659 29.4904C82.9612 21.3857 72.7524 17.3333 60.4395 17.3333C52.9582 17.3333 46.1003 19.0478 39.8659 22.4767C34.3622 25.5343 29.8953 29.5398 26.4651 34.4932C25.9611 35.221 25.4795 35.9692 25.0203 36.7379L43.139 47.2585C43.3587 46.841 43.5939 46.4359 43.8446 46.0432ZM26.6667 53.3333C22.9848 53.3333 20 56.3181 20 60C20 63.6819 22.9848 66.6667 26.6667 66.6667C30.3486 66.6667 33.3334 63.6819 33.3334 60C33.3333 56.3181 30.3486 53.3333 26.6667 53.3333ZM17.3334 60C17.3334 54.8454 21.512 50.6667 26.6667 50.6667C31.8213 50.6667 36 54.8454 36 60C36 65.1547 31.8213 69.3333 26.6667 69.3333C21.512 69.3333 17.3334 65.1547 17.3334 60Z" fill="#18191F"/>
</svg>
